<svg xmlns="http://www.w3.org/2000/svg" xmlns:xlink="http://www.w3.org/1999/xlink" viewBox="0 0 691.65 461.1"><defs><style>.cls-1{fill:#1e88e5;}.cls-2{fill:url(#linear-gradient);}.cls-3{fill:#64b5f6;}.cls-4{fill:#ffb300;}</style><linearGradient id="linear-gradient" x1="705.24" y1="112.82" x2="639.58" y2="178.48" gradientUnits="userSpaceOnUse"><stop offset="0.7" stop-opacity="0"/><stop offset="1" stop-opacity="0.8"/></linearGradient></defs><title>lzy-logo</title><g id="Y"><polyline id="Y-2" data-name="Y" class="cls-1" points="461.1 384.25 614.8 384.25 691.65 307.4 691.65 0 614.8 0 614.8 153.7 614.8 153.7 537.95 153.7 537.95 0 461.1 0 461.1 153.7 537.95 230.55 614.8 230.55 614.8 307.4 461.1 307.4"/><polygon class="cls-2" points="614.8 99.24 614.8 153.7 691.65 230.44 691.65 99.24 614.8 99.24"/></g><g id="Z"><polygon id="Z-2" data-name="Z" class="cls-3" points="230.55 76.85 384.25 76.85 461.1 153.7 461.1 230.55 307.4 345.83 345.83 384.25 461.1 384.25 461.1 461.1 308.17 461.1 230.55 384.25 230.55 307.4 384.25 192.13 345.83 153.7 230.55 153.7 230.55 76.85"/></g><g id="L"><polygon id="L-2" data-name="L" class="cls-4" points="0 0 0 307.4 76.85 384.25 230.55 384.25 230.55 307.4 76.85 308.17 76.85 0 0 0"/></g></svg>